<?xml version="1.0" encoding="UTF-8" standalone="no"?>
<!-- Created with Inkscape (http://www.inkscape.org/) -->

<svg
   version="1.1"
   id="svg2530"
   width="172.75296"
   height="130.84744"
   viewBox="0 0 172.75296 130.84744"
   xmlns="http://www.w3.org/2000/svg"
   xmlns:svg="http://www.w3.org/2000/svg">
  <defs
     id="defs2534">
    <clipPath
       clipPathUnits="userSpaceOnUse"
       id="clipPath3160">
      <path
         d="m 342.441,410.525 h 72.271 v -65.121 h -72.271 z"
         id="path3158" />
    </clipPath>
    <clipPath
       clipPathUnits="userSpaceOnUse"
       id="clipPath3176">
      <path
         d="m 339.38,421.23 h 86.335 V 323.39 H 339.38 Z"
         id="path3174" />
    </clipPath>
    <clipPath
       clipPathUnits="userSpaceOnUse"
       id="clipPath3204">
      <path
         d="M 0,500 H 750 V 0 H 0 Z"
         id="path3202" />
    </clipPath>
    <clipPath
       clipPathUnits="userSpaceOnUse"
       id="clipPath3232">
      <path
         d="m 393.909,408.329 h 23.207 v -20.153 h -23.207 z"
         id="path3230" />
    </clipPath>
    <clipPath
       clipPathUnits="userSpaceOnUse"
       id="clipPath3248">
      <path
         d="m 390.123,411.565 h 6.5 v -6.5 h -6.5 z"
         id="path3246" />
    </clipPath>
    <clipPath
       clipPathUnits="userSpaceOnUse"
       id="clipPath3264">
      <path
         d="m 331.72,391.82 h 86.69 v -40.91 h -86.69 z"
         id="path3262" />
    </clipPath>
    <clipPath
       clipPathUnits="userSpaceOnUse"
       id="clipPath3284">
      <path
         d="m 374.97,350.561 h 5.82 v -1.321 h -5.82 z"
         id="path3282" />
    </clipPath>
    <clipPath
       clipPathUnits="userSpaceOnUse"
       id="clipPath3300">
      <path
         d="M 380.79,350.23 H 412.1 V 323.39 H 380.79 Z"
         id="path3298" />
    </clipPath>
    <clipPath
       clipPathUnits="userSpaceOnUse"
       id="clipPath3316">
      <path
         d="m 419.29,355.96 h 1.16 v -2.54 h -1.16 z"
         id="path3314" />
    </clipPath>
    <clipPath
       clipPathUnits="userSpaceOnUse"
       id="clipPath3863">
      <g
         id="g3867">
        <path
           d="M 0,500 H 750 V 0 H 0 Z"
           id="path3865" />
      </g>
    </clipPath>
    <clipPath
       clipPathUnits="userSpaceOnUse"
       id="clipPath3869">
      <g
         id="g3873">
        <path
           d="M 0,500 H 750 V 0 H 0 Z"
           id="path3871" />
      </g>
    </clipPath>
    <clipPath
       clipPathUnits="userSpaceOnUse"
       id="clipPath3875">
      <g
         id="g3879"
         transform="translate(-423.71,-381.3101)">
        <path
           d="M 0,500 H 750 V 0 H 0 Z"
           id="path3877" />
      </g>
    </clipPath>
  </defs>
  <g
     id="g2538"
     transform="matrix(1.3333333,0,0,-1.3333333,-410.86685,562.03424)">
    <g
       id="g3150"
       transform="translate(423.71,381.3101)"
       clip-path="url(#clipPath3875)">
      <path
         d="m 0,0 c -0.31,-1.25 -0.61,-2.52 -0.93,-3.79 -0.39,-1.57 -0.78,-3.15 -1.18,-4.73 -0.71,-2.75 -1.43,-5.52 -2.18,-8.25 -0.33,-1.2 -0.67,-2.41 -1.01,-3.6 -0.1,-0.35 -0.2,-0.7 -0.3,-1.05 -0.21,-0.74 -0.43,-1.48 -0.65,-2.22 -0.16,-0.55 -0.32,-1.1 -0.49,-1.64 -0.16,-0.53 -0.32,-1.05 -0.48,-1.57 -0.02,-0.07 -0.05,-0.15 -0.07,-0.22 -0.35,-1.13 -0.71,-2.24 -1.07,-3.33 -0.8,-2.42 -1.619,-4.76 -2.48,-6.98 -0.21,-0.54 -0.42,-1.08 -0.63,-1.61 -0.05,-0.12 -0.09,-0.24 -0.14,-0.35 -0.67,-1.67 -1.36,-3.26 -2.07,-4.76 -0.23,-0.48 -0.45,-0.94 -0.68,-1.39 -0.07,-0.14 -0.14,-0.29 -0.22,-0.43 -0.18,-0.37 -0.37,-0.73 -0.56,-1.08 -0.08,-0.16 -0.17,-0.33 -0.27,-0.5 -0.15,-0.27 -0.3,-0.55 -0.46,-0.82 -1.47,-2.57 -3.02,-4.73 -4.64,-6.34 -0.17,-0.18 -0.35,-0.35 -0.53,-0.51 -0.41,-0.37 -0.82,-0.71 -1.24,-1.01 -0.13,-0.09 -0.27,-0.19 -0.41,-0.28 -0.16,-0.1 -0.32,-0.2 -0.48,-0.3 -0.17,-0.1 -0.33,-0.19 -0.5,-0.27 -0.059,-0.03 -0.13,-0.07 -0.2,-0.1 -0.359,-0.17 -0.72,-0.32 -1.09,-0.43 -0.09,-0.03 -0.19,-0.06 -0.29,-0.09 -0.16,-0.05 -0.32,-0.09 -0.49,-0.12 -0.04,-0.01 -0.09,-0.02 -0.14,-0.02 -0.13,-0.03 -0.26,-0.05 -0.39,-0.07 -0.1,-0.01 -0.209,-0.02 -0.31,-0.03 -0.21,-0.02 -0.41,-0.03 -0.62,-0.03 -12.19,0 -5.96,21.42 -15.72,26.84 h -4.4 c -0.52,-0.29 -0.99,-0.62 -1.42,-0.99 -0.62,-0.53 -1.16,-1.14 -1.63,-1.82 v -0.01 c -5.41,-7.77 -2.05,-24.02 -12.67,-24.02 -6.99,0 -12.77,10.24 -17.64,24.02 v 0.01 c 0,0.01 0,0.01 -0.01,0.03 -1.27,3.59 -2.48,7.41 -3.64,11.35 -1.98,6.77 -3.81,13.9 -5.49,20.79 -0.14,0.58 -0.28,1.15 -0.42,1.72 -0.42,1.73 -0.76,3.38 -1.04,4.96 -0.16,0.87 -0.3,1.73 -0.41,2.56 -0.02,0.13 -0.04,0.25 -0.05,0.37 -0.1,0.7 -0.18,1.39 -0.25,2.07 -0.08,0.84 -0.14,1.65 -0.18,2.44 -0.94,17.37 7.76,24.12 16.57,26.81 10.66,3.25 15.54,-2.17 20.96,-5.24 0,0 2.29,-2.69 5.87,-3.96 1.1,-0.39 2.33,-0.65 3.65,-0.65 5.59,0 9.52,4.61 9.52,4.61 4.9,2.77 9.35,7.47 18.03,5.95 0.93,-0.16 1.9,-0.39 2.93,-0.71 C -6.69,36.79 1.16,31.04 1.94,17.18 2.21,12.46 1.65,6.79 0,0"
         style="fill:#faf7f2;fill-opacity:1;fill-rule:nonzero;stroke:none"
         id="path3152" />
    </g>
    <g
       id="g3154"
       clip-path="url(#clipPath3869)">
      <g
         id="g3156" />
      <g
         id="g3168">
        <g
           clip-path="url(#clipPath3160)"
           opacity="0.130005"
           id="g3166">
          <g
             transform="translate(361.3081,347.8135)"
             id="g3164">
            <path
               d="m 0,0 c -1.142,-3.103 -5.482,-3.184 -6.671,-0.098 -0.377,0.978 -0.765,2.026 -1.163,3.146 -0.029,0.09 -0.06,0.179 -0.091,0.268 l 0.004,-0.01 c -1.13,3.194 -2.261,6.723 -3.458,10.787 -2.248,7.676 -4.266,15.788 -5.772,21.997 -5.42,22.26 3.394,24.947 7.158,26.095 1.143,0.348 2.15,0.525 2.992,0.525 1.662,0 2.923,-0.724 5.846,-2.639 0.562,-0.368 1.164,-0.763 1.801,-1.162 0.183,-0.116 0.352,-0.244 0.511,-0.391 1.795,-1.651 4.807,-3.964 8.794,-5.379 2.405,-0.851 4.869,-1.283 7.328,-1.283 7.729,0 13.36,4.092 16.139,6.67 0.164,0.151 0.335,0.283 0.523,0.4 0.632,0.396 1.228,0.787 1.786,1.153 2.917,1.911 4.175,2.633 5.83,2.633 0.417,0 0.879,-0.044 1.374,-0.13 0.527,-0.091 1.029,-0.214 1.568,-0.381 5.014,-1.527 8.409,-4.166 8.857,-12.142 C 53.578,46.195 53.023,41.5 51.709,36.093 48.901,24.553 45.804,12.495 42.21,2.525 41.871,1.583 41.539,0.693 41.214,-0.146 c -1.182,-3.06 -5.517,-3.002 -6.648,0.078 -1.315,3.58 -3.308,7.137 -6.571,9.908 -2.779,2.358 -6.35,3.577 -9.994,3.577 h -1.896 c -2.81,0 -5.599,-0.755 -7.918,-2.342 C 6.184,9.705 4.444,7.966 2.999,5.888 2.906,5.755 2.817,5.621 2.732,5.485 1.571,3.738 0.691,1.878 0,0"
               style="fill:#ffffff;fill-opacity:1;fill-rule:nonzero;stroke:none"
               id="path3162" />
          </g>
        </g>
      </g>
    </g>
    <g
       id="g3170"
       clip-path="url(#clipPath3863)">
      <g
         id="g3172" />
      <g
         id="g3184">
        <g
           clip-path="url(#clipPath3176)"
           opacity="0.399994"
           id="g3182">
          <g
             transform="translate(423.71,381.3101)"
             id="g3180">
            <path
               d="m 0,0 c -0.31,-1.25 -0.61,-2.52 -0.93,-3.79 -0.39,-1.57 -0.78,-3.15 -1.18,-4.73 -0.71,-2.75 -1.43,-5.52 -2.18,-8.25 -0.33,-1.21 -0.66,-2.41 -1,-3.6 -0.1,-0.35 -0.2,-0.7 -0.31,-1.05 -0.21,-0.74 -0.43,-1.48 -0.65,-2.22 -0.16,-0.55 -0.32,-1.1 -0.49,-1.64 -0.1,-0.32 -0.2,-0.64 -0.3,-0.96 -0.08,-0.28 -0.16,-0.55 -0.25,-0.83 -0.35,-1.13 -0.71,-2.24 -1.07,-3.33 -0.8,-2.42 -1.619,-4.76 -2.48,-6.98 -0.21,-0.54 -0.42,-1.08 -0.63,-1.61 -0.05,-0.12 -0.09,-0.24 -0.14,-0.35 -0.67,-1.67 -1.36,-3.26 -2.07,-4.76 -0.23,-0.47 -0.45,-0.94 -0.68,-1.39 -0.07,-0.14 -0.14,-0.29 -0.22,-0.43 -0.18,-0.37 -0.37,-0.73 -0.56,-1.08 -0.08,-0.16 -0.17,-0.33 -0.27,-0.5 -0.15,-0.27 -0.3,-0.55 -0.46,-0.82 -1.47,-2.57 -3.02,-4.73 -4.64,-6.34 -0.17,-0.18 -0.35,-0.35 -0.53,-0.51 -0.41,-0.37 -0.82,-0.71 -1.24,-1.01 -0.13,-0.09 -0.27,-0.19 -0.41,-0.28 -0.16,-0.1 -0.32,-0.2 -0.48,-0.3 -0.17,-0.1 -0.33,-0.19 -0.5,-0.27 -0.059,-0.03 -0.13,-0.07 -0.2,-0.1 -0.359,-0.17 -0.72,-0.32 -1.09,-0.43 -0.09,-0.03 -0.19,-0.06 -0.29,-0.09 -0.16,-0.05 -0.32,-0.09 -0.49,-0.12 -0.04,-0.01 -0.09,-0.02 -0.14,-0.02 -0.13,-0.03 -0.26,-0.05 -0.39,-0.07 -0.1,-0.01 -0.209,-0.02 -0.31,-0.03 -0.21,-0.02 -0.41,-0.03 -0.62,-0.03 -12.19,0 -5.96,21.42 -15.72,26.84 h -4.4 c -0.52,-0.29 -0.99,-0.62 -1.42,-0.99 -0.62,-0.53 -1.16,-1.14 -1.63,-1.82 v -0.01 c -5.41,-7.77 -2.05,-24.02 -12.67,-24.02 -6.99,0 -12.77,10.24 -17.64,24.02 v 0.01 c 0,0.01 0,0.01 -0.01,0.03 -1.27,3.59 -2.48,7.41 -3.64,11.35 3.77,-2.43 8.24,-3.73 12.78,-4.06 1.58,-0.12 3.18,-0.12 4.75,-0.01 3.36,0.23 6.66,0.93 9.88,1.92 2.78,0.85 5.49,1.92 8.15,3.12 1,0.44 1.98,0.9 2.96,1.38 0.05,0.03 0.11,0.05 0.16,0.08 1.84,0.89 3.671,1.83 5.46,2.84 2.3,1.27 4.54,2.64 6.7,4.12 3.57,2.45 6.9,5.2 9.85,8.36 3.77,4.03 6.89,8.77 8.85,13.9 1.27,3.29 2.05,6.75 2.23,10.28 0.06,1.28 0.04,2.57 -0.06,3.85 -0.09,1.02 -0.23,2.04 -0.42,3.05 -0.51,2.62 -1.38,5.16 -2.59,7.52 -1.3,2.54 -2.66,4.65 -1.94,6.08 0.93,-0.16 1.9,-0.39 2.93,-0.71 C -6.69,36.79 1.16,31.04 1.94,17.18 2.21,12.46 1.65,6.79 0,0"
               style="fill:#acacac;fill-opacity:1;fill-rule:nonzero;stroke:none"
               id="path3178" />
          </g>
        </g>
      </g>
    </g>
    <g
       id="g3198">
      <g
         id="g3200"
         clip-path="url(#clipPath3204)">
        <g
           id="g3206"
           transform="translate(323.0894,361.7686)">
          <path
             d="m 0,0 c -6.413,-0.425 -7.025,-1.154 -7.382,-8.789 -0.004,-0.088 -0.115,-0.088 -0.118,0 -0.357,7.635 -0.97,8.364 -7.383,8.789 -0.075,0.005 -0.075,0.136 0,0.141 6.413,0.425 7.026,1.154 7.383,8.789 0.003,0.089 0.114,0.089 0.118,0 C -7.025,1.295 -6.413,0.566 0,0.141 0.075,0.136 0.075,0.005 0,0"
             style="fill:#ffffff;fill-opacity:1;fill-rule:nonzero;stroke:none"
             id="path3208" />
        </g>
        <g
           id="g3210"
           transform="translate(328.2056,369.0776)">
          <path
             d="m 0,0 c -3.315,-0.219 -3.632,-0.597 -3.817,-4.544 -0.002,-0.046 -0.059,-0.046 -0.061,0 -0.184,3.947 -0.501,4.325 -3.817,4.544 -0.039,0.003 -0.039,0.071 0,0.073 3.316,0.22 3.633,0.597 3.817,4.545 0.002,0.046 0.059,0.046 0.061,0 C -3.632,0.67 -3.315,0.293 0,0.073 0.039,0.071 0.039,0.003 0,0"
             style="fill:#ffffff;fill-opacity:1;fill-rule:nonzero;stroke:none"
             id="path3212" />
        </g>
        <g
           id="g3214"
           transform="translate(328.834,355.5249)">
          <path
             d="m 0,0 c -2.222,-0.147 -2.434,-0.4 -2.558,-3.045 -0.001,-0.031 -0.039,-0.031 -0.041,0 -0.123,2.645 -0.336,2.898 -2.557,3.045 -0.026,0.002 -0.026,0.047 0,0.049 2.221,0.147 2.434,0.4 2.557,3.045 0.002,0.031 0.04,0.031 0.041,0 C -2.434,0.449 -2.222,0.196 0,0.049 0.026,0.047 0.026,0.002 0,0"
             style="fill:#ffffff;fill-opacity:1;fill-rule:nonzero;stroke:none"
             id="path3216" />
        </g>
        <g
           id="g3218"
           transform="translate(328.3291,362.543)">
          <path
             d="m 0,0 c 0,-0.369 -0.299,-0.668 -0.667,-0.668 -0.37,0 -0.668,0.299 -0.668,0.668 0,0.369 0.298,0.667 0.668,0.667 C -0.299,0.667 0,0.369 0,0"
             style="fill:#ffffff;fill-opacity:1;fill-rule:nonzero;stroke:none"
             id="path3220" />
        </g>
        <g
           id="g3222"
           transform="translate(310.7383,369.0166)">
          <path
             d="m 0,0 c 0,-0.315 -0.255,-0.57 -0.57,-0.57 -0.315,0 -0.57,0.255 -0.57,0.57 0,0.315 0.255,0.57 0.57,0.57 C -0.255,0.57 0,0.315 0,0"
             style="fill:#ffffff;fill-opacity:1;fill-rule:nonzero;stroke:none"
             id="path3224" />
        </g>
        <g
           id="g3226">
          <g
             id="g3228" />
          <g
             id="g3240">
            <g
               clip-path="url(#clipPath3232)"
               opacity="0.460007"
               id="g3238">
              <g
                 transform="translate(406.7998,394.668)"
                 id="g3236">
                <path
                   d="m 0,0 c 0.654,-1.378 1.166,-2.836 2.032,-4.092 0.866,-1.255 2.187,-2.315 3.709,-2.395 1.918,-0.102 3.651,1.438 4.256,3.26 0.604,1.824 0.278,3.835 -0.365,5.644 -1.624,4.574 -5.313,8.369 -9.838,10.123 -2.685,1.04 -5.64,1.352 -8.488,0.955 -2.71,-0.378 -6.349,-1.036 -2.578,-2.913 C -6.419,8.166 -2.386,5.023 0,0"
                   style="fill:#ffffff;fill-opacity:1;fill-rule:nonzero;stroke:none"
                   id="path3234" />
              </g>
            </g>
          </g>
        </g>
        <g
           id="g3242">
          <g
             id="g3244" />
          <g
             id="g3256">
            <g
               clip-path="url(#clipPath3248)"
               opacity="0.460007"
               id="g3254">
              <g
                 transform="translate(396.623,408.3149)"
                 id="g3252">
                <path
                   d="m 0,0 c 0,-1.795 -1.455,-3.25 -3.25,-3.25 -1.795,0 -3.25,1.455 -3.25,3.25 0,1.794 1.455,3.25 3.25,3.25 C -1.455,3.25 0,1.794 0,0"
                   style="fill:#ffffff;fill-opacity:1;fill-rule:nonzero;stroke:none"
                   id="path3250" />
              </g>
            </g>
          </g>
        </g>
        <g
           id="g3258">
          <g
             id="g3260" />
          <g
             id="g3272">
            <g
               clip-path="url(#clipPath3264)"
               opacity="0.399994"
               id="g3270">
              <g
                 transform="translate(418.4102,360.9399)"
                 id="g3268">
                <path
                   d="m 0,0 c -0.641,-2.27 -1.311,-4.51 -1.99,-6.7 -0.35,-1.13 -0.71,-2.24 -1.071,-3.33 -1.79,0.23 -3.569,0.55 -5.299,0.88 -14.161,2.69 -28.39,5.4 -41.99,10.22 -4.54,1.61 -9,3.45 -13.35,5.52 -7.32,3.48 -13.85,8.01 -20.82,12.06 -0.14,0.58 -0.28,1.15 -0.42,1.72 -0.42,1.73 -0.76,3.38 -1.04,4.96 -0.32,1.75 -0.55,3.42 -0.71,5 0.64,0.27 1.35,0.46 2.11,0.54 0.04,0 0.08,0.01 0.12,0.01 C -65.77,17.3 -17.25,3.22 0,0"
                   style="fill:#acacac;fill-opacity:1;fill-rule:nonzero;stroke:none"
                   id="path3266" />
              </g>
            </g>
          </g>
        </g>
        <g
           id="g3274"
           transform="translate(430.6201,351.2798)">
          <path
             d="m 0,0 c -3.46,0.33 -6.811,1.32 -10.21,2.05 -0.141,0.03 -0.27,0.06 -0.41,0.09 -0.24,0.05 -0.481,0.1 -0.71,0.16 -0.96,0.21 -1.91,0.43 -2.87,0.66 -3.571,0.84 -7.12,1.77 -10.651,2.78 -4.369,1.23 -8.71,2.57 -13.029,3.96 -3.08,1 -6.16,2.02 -9.221,3.09 -7.25,2.5 -14.429,5.19 -21.529,8.09 -5.64,2.3 -11.27,4.7 -16.76,7.37 -3.12,1.51 -6.2,3.1 -9.22,4.81 -1.14,0.64 -2.35,1.26 -3.58,1.93 -3.65,1.98 -7.49,4.34 -10.17,8.55 -8.25,13.01 7.05,13.61 8.98,13.48 0.07,0 0.08,-0.1 0.02,-0.14 -7.02,-4.24 -5.77,-9.27 0.28,-14.45 0.73,-0.63 1.54,-1.26 2.41,-1.89 2.69,-1.95 6,-3.92 9.74,-5.86 12.83,-6.66 30.79,-13.04 46.53,-17.77 6.33,-1.91 12.299,-3.55 17.44,-4.84 4.24,-1.06 7.92,-1.88 10.75,-2.41 h 0.01 c 2.99,-0.56 5.04,-0.8 5.83,-0.64 6.08,1.21 0.13,8.84 -2.03,11.36 -0.06,0.07 0.03,0.17 0.1,0.11 C -3.61,16.55 18.11,-1.71 0,0"
             style="fill:#009fd6;fill-opacity:1;fill-rule:nonzero;stroke:none"
             id="path3276" />
        </g>
        <g
           id="g3278">
          <g
             id="g3280" />
          <g
             id="g3292">
            <g
               clip-path="url(#clipPath3284)"
               opacity="0.399994"
               id="g3290">
              <g
                 transform="translate(380.1396,350.3799)"
                 id="g3288">
                <path
                   d="m 0,0 c 0.221,-0.04 0.431,-0.09 0.65,-0.15 h -4.4 C -4.27,-0.44 -4.74,-0.77 -5.169,-1.14 -4.31,0.46 -1.399,0.27 0,0"
                   style="fill:#acacac;fill-opacity:1;fill-rule:nonzero;stroke:none"
                   id="path3286" />
              </g>
            </g>
          </g>
        </g>
        <g
           id="g3294">
          <g
             id="g3296" />
          <g
             id="g3308">
            <g
               clip-path="url(#clipPath3300)"
               opacity="0.399994"
               id="g3306">
              <g
                 transform="translate(412.0996,341.9702)"
                 id="g3304">
                <path
                   d="M 0,0 C -0.67,-1.67 -1.359,-3.26 -2.069,-4.76 -2.3,-5.24 -2.52,-5.7 -2.75,-6.15 c -0.069,-0.14 -0.14,-0.29 -0.22,-0.43 -0.179,-0.37 -0.37,-0.73 -0.559,-1.08 -0.08,-0.16 -0.17,-0.33 -0.271,-0.5 -0.149,-0.27 -0.3,-0.55 -0.46,-0.82 -1.469,-2.57 -3.019,-4.73 -4.639,-6.34 -0.17,-0.18 -0.351,-0.35 -0.531,-0.51 -0.41,-0.37 -0.82,-0.71 -1.24,-1.01 -0.13,-0.09 -0.269,-0.19 -0.41,-0.28 -0.159,-0.1 -0.319,-0.2 -0.48,-0.3 -0.169,-0.1 -0.33,-0.19 -0.5,-0.27 -0.059,-0.03 -0.129,-0.07 -0.2,-0.1 -0.359,-0.17 -0.719,-0.32 -1.09,-0.43 -0.089,-0.03 -0.19,-0.06 -0.29,-0.09 -0.16,-0.05 -0.32,-0.09 -0.49,-0.12 -0.04,-0.01 -0.09,-0.02 -0.14,-0.02 -0.129,-0.03 -0.259,-0.05 -0.389,-0.07 -0.101,-0.01 -0.21,-0.02 -0.311,-0.03 -0.21,-0.02 -0.41,-0.03 -0.62,-0.03 -12.189,0 -5.96,21.42 -15.72,26.84 4.241,-1.02 8.081,-3.88 10.111,-7.75 1.21,-2.31 1.92,-5.04 3.97,-6.64 2.53,-1.97 6.219,-1.49 9.139,-0.16 3.141,1.43 5.83,3.67 8.09,6.29"
                   style="fill:#acacac;fill-opacity:1;fill-rule:nonzero;stroke:none"
                   id="path3302" />
              </g>
            </g>
          </g>
        </g>
        <g
           id="g3310">
          <g
             id="g3312" />
          <g
             id="g3324">
            <g
               clip-path="url(#clipPath3316)"
               opacity="0.399994"
               id="g3322">
              <g
                 transform="translate(420.4502,355.96)"
                 id="g3320">
                <path
                   d="m 0,0 c -0.141,-0.85 -0.29,-1.69 -0.45,-2.54 -0.24,0.05 -0.481,0.1 -0.71,0.16 0.389,0.79 0.78,1.59 1.16,2.38"
                   style="fill:#acacac;fill-opacity:1;fill-rule:nonzero;stroke:none"
                   id="path3318" />
              </g>
            </g>
          </g>
        </g>
      </g>
    </g>
  </g>
</svg>
